<svg xmlns="http://www.w3.org/2000/svg" viewBox="0 0 487.11 556.49"><defs><style>.cls-1,.cls-3{fill:#1d1d1b;}.cls-2{fill:#fff;}.cls-2,.cls-4{stroke:#1d1d1b;}.cls-2,.cls-3,.cls-4,.cls-5{stroke-miterlimit:10;}.cls-3{stroke:#fff;}.cls-4,.cls-5,.cls-6{fill:none;}.cls-5{stroke:#111212;}</style></defs><g id="Calque_2" data-name="Calque 2"><g id="logo"><ellipse class="cls-1" cx="118.16" cy="66.99" rx="104.4" ry="56.35" transform="translate(-17.11 54.66) rotate(-24.34)"/><circle class="cls-2" cx="243.56" cy="305.07" r="243.06"/><ellipse class="cls-3" cx="307.82" cy="432.86" rx="181.19" ry="101.64" transform="translate(-165.5 191.85) rotate(-27.6)"/><line class="cls-4" x1="326.97" y1="334.17" x2="301.19" y2="347.42"/><line class="cls-4" x1="329.92" y1="345.95" x2="304.14" y2="359.21"/><line class="cls-4" x1="321.81" y1="380.57" x2="296.04" y2="393.83"/><line class="cls-4" x1="298.98" y1="362.15" x2="273.2" y2="375.41"/><line class="cls-4" x1="217.23" y1="389.41" x2="191.45" y2="402.66"/><line class="cls-4" x1="257" y1="387.2" x2="231.22" y2="400.45"/><line class="cls-4" x1="290.14" y1="379.83" x2="264.36" y2="393.09"/><line class="cls-4" x1="317.76" y1="373.2" x2="291.98" y2="386.46"/><line class="cls-4" x1="279.09" y1="393.64" x2="253.32" y2="406.9"/><line class="cls-4" x1="273.2" y1="406.35" x2="247.42" y2="419.6"/><line class="cls-4" x1="307.82" y1="407.82" x2="282.04" y2="421.08"/><line class="cls-4" x1="301.74" y1="398.98" x2="275.96" y2="412.24"/><line class="cls-4" x1="304.51" y1="425.5" x2="278.73" y2="438.75"/><line class="cls-4" x1="299.9" y1="470.79" x2="274.12" y2="484.05"/><line class="cls-4" x1="327.52" y1="470.79" x2="301.74" y2="484.05"/><line class="cls-4" x1="320.34" y1="488.47" x2="294.56" y2="501.73"/><line class="cls-4" x1="319.24" y1="504.49" x2="293.46" y2="517.75"/><line class="cls-4" x1="313.71" y1="519.96" x2="287.93" y2="533.22"/><line class="cls-4" x1="288.85" y1="488.47" x2="263.08" y2="501.73"/><line class="cls-4" x1="284.43" y1="507.81" x2="258.66" y2="521.06"/><line class="cls-4" x1="280.57" y1="523.82" x2="254.79" y2="537.08"/><line class="cls-4" x1="326.42" y1="450.91" x2="300.64" y2="464.17"/><line class="cls-4" x1="214.28" y1="514.43" x2="188.5" y2="527.69"/><line class="cls-4" x1="211.52" y1="531.01" x2="185.74" y2="544.26"/><line class="cls-4" x1="237.85" y1="408.56" x2="212.07" y2="421.81"/><line class="cls-4" x1="229.75" y1="430.65" x2="203.97" y2="443.91"/><line class="cls-4" x1="206.55" y1="448.33" x2="180.77" y2="461.59"/><line class="cls-4" x1="220.91" y1="426.79" x2="195.13" y2="440.04"/><line class="cls-4" x1="228.27" y1="451.28" x2="202.5" y2="464.53"/><line class="cls-4" x1="258.66" y1="425.87" x2="232.88" y2="439.12"/><line class="cls-4" x1="265.84" y1="430.65" x2="240.06" y2="443.91"/><line class="cls-4" x1="258.1" y1="455.51" x2="232.32" y2="468.77"/><line class="cls-4" x1="239.32" y1="458.27" x2="213.54" y2="471.53"/><line class="cls-4" x1="272.47" y1="441.15" x2="246.69" y2="454.41"/><line class="cls-4" x1="180.77" y1="495.84" x2="154.99" y2="509.09"/><line class="cls-4" x1="233.25" y1="477.61" x2="207.47" y2="490.86"/><line class="cls-4" x1="212.81" y1="496.94" x2="187.03" y2="510.2"/><line class="cls-4" x1="182.42" y1="509.09" x2="156.65" y2="522.35"/><line class="cls-4" x1="295.67" y1="447.22" x2="269.89" y2="460.48"/><line class="cls-4" x1="247.61" y1="496.94" x2="221.83" y2="510.2"/><line class="cls-4" x1="252.58" y1="511.3" x2="226.8" y2="524.56"/><line class="cls-4" x1="243.19" y1="532.29" x2="217.41" y2="545.55"/><line class="cls-4" x1="197.34" y1="426.23" x2="171.56" y2="439.49"/><line class="cls-4" x1="184.82" y1="444.65" x2="159.04" y2="457.9"/><line class="cls-4" x1="186.29" y1="466.01" x2="160.51" y2="479.26"/><line class="cls-4" x1="179.11" y1="480.92" x2="153.33" y2="494.18"/><line class="cls-4" x1="208.39" y1="473.19" x2="182.61" y2="486.45"/><line class="cls-4" x1="212.81" y1="404.14" x2="187.03" y2="417.4"/><line class="cls-4" x1="260.68" y1="373.2" x2="234.9" y2="386.46"/><line class="cls-4" x1="245.21" y1="367.31" x2="219.44" y2="380.57"/><line class="cls-4" x1="286.46" y1="353.32" x2="260.68" y2="366.57"/><line class="cls-5" x1="259.94" y1="352.58" x2="285.72" y2="339.32"/><rect class="cls-1" x="214.98" y="260.94" width="3.68" height="25.78" transform="translate(-129.6 229.22) rotate(-44.29)"/><rect class="cls-1" x="223.03" y="257.3" width="3.68" height="25.78" transform="translate(-124.77 233.82) rotate(-44.29)"/><rect class="cls-1" x="246.19" y="246.85" width="3.68" height="25.78" transform="translate(514.81 500.19) rotate(175.71)"/><rect class="cls-1" x="238.14" y="250.48" width="3.68" height="25.78" transform="translate(498.99 508.05) rotate(175.71)"/><polygon class="cls-6" points="98.64 323.86 98.07 324.96 99.03 323.71 98.64 323.86"/><path d="M148.65,253.46l-65.26-3.29a2,2,0,0,0-.55,4l43.87,9.8a2,2,0,0,1,1.37,2.93L99,323.71h0l51.15-67A2,2,0,0,0,148.65,253.46Z"/><polygon class="cls-6" points="358.94 208.9 360.11 209.3 358.56 209.06 358.94 208.9"/><path d="M274.1,192.79l44.77-47.59a2,2,0,0,1,3.19,2.53l-24.84,37.46a2,2,0,0,0,1,3.06l60.68,20.65-.38.16-83.29-12.85A2,2,0,0,1,274.1,192.79Z"/></g></g></svg>